<?xml version="1.0" encoding="UTF-8"?>
<!DOCTYPE svg PUBLIC "-//W3C//DTD SVG 1.1//EN" "http://www.w3.org/Graphics/SVG/1.1/DTD/svg11.dtd">
<!-- Creator: CorelDRAW X7 -->
<svg xmlns="http://www.w3.org/2000/svg" xml:space="preserve" width="210mm" height="297mm" version="1.1" style="shape-rendering:geometricPrecision; text-rendering:geometricPrecision; image-rendering:optimizeQuality; fill-rule:evenodd; clip-rule:evenodd"
viewBox="0 0 21000 29700"
 xmlns:xlink="http://www.w3.org/1999/xlink">
 <defs>
  <style type="text/css">
   <![CDATA[
    .str1 {stroke:white;stroke-width:100}
    .str2 {stroke:black;stroke-width:75}
    .str0 {stroke:black;stroke-width:7.62}
    .fil4 {fill:none}
    .fil5 {fill:black}
    .fil0 {fill:black}
    .fil2 {fill:#663333}
    .fil1 {fill:#FF6600}
    .fil3 {fill:white}
   ]]>
  </style>
 </defs>
 <g id="Camada_x0020_1">
  <metadata id="CorelCorpID_0Corel-Layer"/>
  <g id="_1855282350896">
   <path class="fil0 str0" d="M10500 10662c2311,0 4185,1875 4185,4188 0,2313 -1874,4188 -4185,4188 -2311,0 -4185,-1875 -4185,-4188 0,-2313 1874,-4188 4185,-4188z"/>
   <g>
    <ellipse class="fil1 str1" cx="10498" cy="14856" rx="3432" ry="3418"/>
    <path class="fil2 str1" d="M10498 14856l-3432 0c0,-1888 1536,-3418 3432,-3418 1895,0 3431,1530 3431,3418l-3431 0z"/>
    <ellipse class="fil3 str2" cx="10500" cy="14826" rx="2106" ry="2092"/>
    <circle class="fil4" cx="10500" cy="14826" r="3421"/>
    <path class="fil0 str0" d="M10200 13961c-251,30 -483,81 -663,197 -126,82 -351,312 -317,556 27,183 430,123 725,123l1714 -4c209,-43 124,-357 -74,-566 -273,-287 -893,-366 -1385,-306z"/>
    <path class="fil0 str0" d="M9343 16022c-113,22 -162,107 -105,229 42,89 138,115 247,137 474,96 1681,95 2094,-16 241,-64 299,-344 5,-358l-2241 8z"/>
    <path class="fil0 str0" d="M9028 15365c17,143 80,100 406,100l980 -1c437,2 445,362 586,410 264,88 121,-413 797,-408 129,1 157,15 171,-101 -48,-23 -36,-22 -108,-22 -295,0 -2763,-33 -2832,22z"/>
    <path class="fil0 str0" d="M10828 15896c-159,-364 -320,-314 -756,-314 -171,0 -917,-37 -1002,45 -45,43 -133,264 171,270l1587 -1z"/>
    <path class="fil0 str0" d="M9221 15097c-136,5 -36,-75 -188,15 118,281 379,-38 380,-38 125,27 115,134 238,145 126,12 159,-101 251,-149 97,50 116,162 252,150 173,-14 71,-144 269,-146 223,313 305,71 415,0 125,27 116,134 238,145 115,11 170,-97 252,-148 109,48 192,323 437,3 131,1 49,7 130,35l70 -47c-35,-64 -94,-125 -200,-101 -120,26 -91,97 -183,151 -106,-36 -120,-142 -237,-154 -165,-17 -147,118 -251,151 -110,-38 -77,-152 -236,-153 -131,0 -137,114 -254,149 -81,-58 -106,-143 -215,-149 -148,-8 -138,102 -231,148 -118,-25 -112,-134 -239,-146 -156,-16 -152,117 -237,138 -128,32 -167,-343 -461,1z"/>
    <path class="fil0 str0" d="M11273 15896c161,0 345,8 503,0 371,-18 199,-481 -265,-274 -101,45 -194,156 -238,274z"/>
    <path class="fil5" d="M10381 12947c0,45 31,50 52,69l-143 153c-12,11 -43,40 -48,52 -14,-6 -26,-21 -36,-31 -11,-11 -23,-21 -35,-32l-68 -65c32,-28 41,-18 41,-65 0,-71 -190,-97 -238,-16 -17,28 -3,56 31,76 26,16 26,12 58,21l-52 199c-23,-4 -236,-111 -278,-128 27,-30 19,-64 -21,-89 -49,-30 -122,-29 -174,0 -74,42 -30,127 87,127l125 490c2,10 8,25 9,35 -67,22 -56,72 -10,90 59,23 392,28 489,28 40,0 61,3 103,3l454 0c42,0 65,-3 103,-3 95,0 444,-5 500,-27 65,-25 46,-82 -11,-91l134 -525c98,-2 153,-81 79,-126 -86,-51 -213,-9 -213,51 0,23 14,27 16,44 -14,2 -53,22 -66,28 -25,13 -186,90 -202,93 -12,-31 -18,-67 -27,-99 -4,-15 -9,-37 -13,-51 -4,-17 -11,-38 -12,-52 43,-6 71,-29 82,-54 23,-50 -61,-110 -167,-85 -60,14 -74,42 -74,77 0,28 28,37 46,52 -15,18 -124,114 -129,125 -13,-6 -17,-15 -27,-24l-174 -184c35,-6 57,-41 57,-63 0,-36 -54,-71 -114,-71l-25 0c-56,0 -109,35 -109,68z"/>
   </g>
  </g>
 </g>
</svg>
